<svg width="2485" height="500" viewBox="0 0 2485 500" fill="none" xmlns="http://www.w3.org/2000/svg">
<rect width="2485" height="500" fill="white"/>
<path d="M165.192 156.68V124.091H359.377V156.68H281.09V375H243.356V156.68H165.192ZM451.324 378.798C433.682 378.798 418.286 374.755 405.136 366.669C391.986 358.583 381.776 347.271 374.507 332.733C367.238 318.194 363.604 301.206 363.604 281.767C363.604 262.246 367.238 245.176 374.507 230.556C381.776 215.936 391.986 204.583 405.136 196.497C418.286 188.411 433.682 184.368 451.324 184.368C468.966 184.368 484.362 188.411 497.512 196.497C510.661 204.583 520.871 215.936 528.14 230.556C535.409 245.176 539.044 262.246 539.044 281.767C539.044 301.206 535.409 318.194 528.14 332.733C520.871 347.271 510.661 358.583 497.512 366.669C484.362 374.755 468.966 378.798 451.324 378.798ZM451.446 348.047C462.881 348.047 472.355 345.025 479.869 338.981C487.384 332.937 492.938 324.892 496.531 314.846C500.207 304.799 502.045 293.732 502.045 281.644C502.045 269.638 500.207 258.612 496.531 248.565C492.938 238.437 487.384 230.311 479.869 224.185C472.355 218.059 462.881 214.996 451.446 214.996C439.93 214.996 430.374 218.059 422.778 224.185C415.264 230.311 409.669 238.437 405.993 248.565C402.4 258.612 400.603 269.638 400.603 281.644C400.603 293.732 402.4 304.799 405.993 314.846C409.669 324.892 415.264 332.937 422.778 338.981C430.374 345.025 439.93 348.047 451.446 348.047ZM616.565 263.267V375H579.933V186.818H615.095V217.447H617.422C621.751 207.482 628.53 199.478 637.76 193.434C647.071 187.39 658.791 184.368 672.921 184.368C685.744 184.368 696.975 187.063 706.613 192.454C716.25 197.763 723.724 205.685 729.033 216.222C734.342 226.758 736.996 239.785 736.996 255.304V375H700.364V259.714C700.364 246.074 696.812 235.415 689.706 227.738C682.6 219.979 672.84 216.099 660.425 216.099C651.93 216.099 644.375 217.937 637.76 221.612C631.226 225.288 626.039 230.678 622.2 237.784C618.443 244.808 616.565 253.303 616.565 263.267ZM867.229 378.798C848.688 378.798 832.721 374.837 819.326 366.914C806.013 358.91 795.721 347.679 788.452 333.223C781.265 318.684 777.671 301.655 777.671 282.134C777.671 262.859 781.265 245.87 788.452 231.168C795.721 216.467 805.849 204.991 818.836 196.742C831.904 188.493 847.177 184.368 864.656 184.368C875.274 184.368 885.565 186.124 895.53 189.636C905.494 193.148 914.438 198.661 922.36 206.175C930.283 213.69 936.531 223.45 941.105 235.456C945.679 247.381 947.966 261.879 947.966 278.949V291.935H798.376V264.492H912.069C912.069 254.854 910.109 246.319 906.188 238.887C902.268 231.373 896.755 225.451 889.649 221.122C882.625 216.793 874.375 214.629 864.901 214.629C854.61 214.629 845.625 217.161 837.948 222.225C830.352 227.207 824.471 233.741 820.306 241.827C816.222 249.831 814.18 258.53 814.18 267.923V289.363C814.18 301.941 816.385 312.64 820.796 321.461C825.288 330.282 831.536 337.021 839.541 341.676C847.545 346.25 856.897 348.537 867.596 348.537C874.539 348.537 880.869 347.557 886.586 345.597C892.303 343.555 897.245 340.533 901.41 336.531C905.576 332.528 908.761 327.587 910.966 321.706L945.638 327.955C942.861 338.164 937.879 347.108 930.691 354.785C923.585 362.381 914.642 368.303 903.861 372.55C893.161 376.715 880.95 378.798 867.229 378.798ZM1159.18 378.798C1141.54 378.798 1126.14 374.755 1112.99 366.669C1099.84 358.583 1089.63 347.271 1082.36 332.733C1075.09 318.194 1071.46 301.206 1071.46 281.767C1071.46 262.246 1075.09 245.176 1082.36 230.556C1089.63 215.936 1099.84 204.583 1112.99 196.497C1126.14 188.411 1141.54 184.368 1159.18 184.368C1176.82 184.368 1192.22 188.411 1205.37 196.497C1218.52 204.583 1228.73 215.936 1236 230.556C1243.27 245.176 1246.9 262.246 1246.9 281.767C1246.9 301.206 1243.27 318.194 1236 332.733C1228.73 347.271 1218.52 358.583 1205.37 366.669C1192.22 374.755 1176.82 378.798 1159.18 378.798ZM1159.3 348.047C1170.74 348.047 1180.21 345.025 1187.73 338.981C1195.24 332.937 1200.79 324.892 1204.39 314.846C1208.06 304.799 1209.9 293.732 1209.9 281.644C1209.9 269.638 1208.06 258.612 1204.39 248.565C1200.79 238.437 1195.24 230.311 1187.73 224.185C1180.21 218.059 1170.74 214.996 1159.3 214.996C1147.79 214.996 1138.23 218.059 1130.63 224.185C1123.12 230.311 1117.53 238.437 1113.85 248.565C1110.26 258.612 1108.46 269.638 1108.46 281.644C1108.46 293.732 1110.26 304.799 1113.85 314.846C1117.53 324.892 1123.12 332.937 1130.63 338.981C1138.23 345.025 1147.79 348.047 1159.3 348.047ZM1377.35 186.818V216.222H1271V186.818H1377.35ZM1300.16 375V165.011C1300.16 153.249 1302.74 143.489 1307.88 135.73C1313.03 127.889 1319.85 122.049 1328.34 118.21C1336.84 114.29 1346.07 112.33 1356.03 112.33C1363.38 112.33 1369.67 112.942 1374.9 114.167C1380.12 115.311 1384 116.373 1386.54 117.353L1377.96 147.001C1376.24 146.511 1374.04 145.939 1371.34 145.286C1368.65 144.551 1365.38 144.183 1361.54 144.183C1352.64 144.183 1346.27 146.388 1342.43 150.799C1338.67 155.21 1336.8 161.58 1336.8 169.911V375H1300.16ZM1531.32 124.091L1601.15 328.445H1603.97L1673.8 124.091H1714.72L1624.43 375H1580.69L1490.4 124.091H1531.32ZM1808.41 378.798C1790.77 378.798 1775.38 374.755 1762.23 366.669C1749.08 358.583 1738.87 347.271 1731.6 332.733C1724.33 318.194 1720.69 301.206 1720.69 281.767C1720.69 262.246 1724.33 245.176 1731.6 230.556C1738.87 215.936 1749.08 204.583 1762.23 196.497C1775.38 188.411 1790.77 184.368 1808.41 184.368C1826.06 184.368 1841.45 188.411 1854.6 196.497C1867.75 204.583 1877.96 215.936 1885.23 230.556C1892.5 245.176 1896.13 262.246 1896.13 281.767C1896.13 301.206 1892.5 318.194 1885.23 332.733C1877.96 347.271 1867.75 358.583 1854.6 366.669C1841.45 374.755 1826.06 378.798 1808.41 378.798ZM1808.54 348.047C1819.97 348.047 1829.45 345.025 1836.96 338.981C1844.47 332.937 1850.03 324.892 1853.62 314.846C1857.3 304.799 1859.13 293.732 1859.13 281.644C1859.13 269.638 1857.3 258.612 1853.62 248.565C1850.03 238.437 1844.47 230.311 1836.96 224.185C1829.45 218.059 1819.97 214.996 1808.54 214.996C1797.02 214.996 1787.46 218.059 1779.87 224.185C1772.35 230.311 1766.76 238.437 1763.08 248.565C1759.49 258.612 1757.69 269.638 1757.69 281.644C1757.69 293.732 1759.49 304.799 1763.08 314.846C1766.76 324.892 1772.35 332.937 1779.87 338.981C1787.46 345.025 1797.02 348.047 1808.54 348.047ZM1937.02 375V186.818H1973.65V375H1937.02ZM1955.52 157.782C1949.15 157.782 1943.68 155.659 1939.11 151.412C1934.61 147.083 1932.37 141.937 1932.37 135.975C1932.37 129.931 1934.61 124.785 1939.11 120.538C1943.68 116.209 1949.15 114.045 1955.52 114.045C1961.89 114.045 1967.32 116.209 1971.82 120.538C1976.39 124.785 1978.68 129.931 1978.68 135.975C1978.68 141.937 1976.39 147.083 1971.82 151.412C1967.32 155.659 1961.89 157.782 1955.52 157.782ZM2102.2 378.798C2083.99 378.798 2068.31 374.673 2055.16 366.424C2042.09 358.093 2032.04 346.618 2025.02 331.998C2017.99 317.377 2014.48 300.634 2014.48 281.767C2014.48 262.654 2018.08 245.788 2025.26 231.168C2032.45 216.467 2042.58 204.991 2055.65 196.742C2068.72 188.493 2084.11 184.368 2101.84 184.368C2116.13 184.368 2128.87 187.022 2140.06 192.331C2151.25 197.559 2160.27 204.909 2167.14 214.384C2174.08 223.858 2178.2 234.925 2179.51 247.585H2143.86C2141.9 238.764 2137.41 231.168 2130.38 224.798C2123.44 218.427 2114.13 215.241 2102.45 215.241C2092.24 215.241 2083.29 217.937 2075.62 223.327C2068.02 228.636 2062.1 236.232 2057.85 246.115C2053.61 255.916 2051.48 267.514 2051.48 280.909C2051.48 294.631 2053.56 306.474 2057.73 316.438C2061.9 326.403 2067.78 334.121 2075.37 339.593C2083.05 345.066 2092.07 347.802 2102.45 347.802C2109.39 347.802 2115.68 346.536 2121.31 344.004C2127.03 341.39 2131.81 337.674 2135.65 332.855C2139.57 328.036 2142.31 322.237 2143.86 315.458H2179.51C2178.2 327.628 2174.24 338.491 2167.63 348.047C2161.01 357.603 2152.15 365.117 2141.04 370.589C2130.01 376.062 2117.07 378.798 2102.2 378.798ZM2299.79 378.798C2281.25 378.798 2265.28 374.837 2251.88 366.914C2238.57 358.91 2228.28 347.679 2221.01 333.223C2213.82 318.684 2210.23 301.655 2210.23 282.134C2210.23 262.859 2213.82 245.87 2221.01 231.168C2228.28 216.467 2238.41 204.991 2251.39 196.742C2264.46 188.493 2279.74 184.368 2297.21 184.368C2307.83 184.368 2318.12 186.124 2328.09 189.636C2338.05 193.148 2347 198.661 2354.92 206.175C2362.84 213.69 2369.09 223.45 2373.66 235.456C2378.24 247.381 2380.52 261.879 2380.52 278.949V291.935H2230.93V264.492H2344.63C2344.63 254.854 2342.67 246.319 2338.75 238.887C2334.83 231.373 2329.31 225.451 2322.21 221.122C2315.18 216.793 2306.93 214.629 2297.46 214.629C2287.17 214.629 2278.18 217.161 2270.51 222.225C2262.91 227.207 2257.03 233.741 2252.86 241.827C2248.78 249.831 2246.74 258.53 2246.74 267.923V289.363C2246.74 301.941 2248.94 312.64 2253.35 321.461C2257.85 330.282 2264.09 337.021 2272.1 341.676C2280.1 346.25 2289.46 348.537 2300.15 348.537C2307.1 348.537 2313.43 347.557 2319.14 345.597C2324.86 343.555 2329.8 340.533 2333.97 336.531C2338.13 332.528 2341.32 327.587 2343.52 321.706L2378.2 327.955C2375.42 338.164 2370.44 347.108 2363.25 354.785C2356.14 362.381 2347.2 368.303 2336.42 372.55C2325.72 376.715 2313.51 378.798 2299.79 378.798Z" fill="black"/>
<line x1="86" y1="75" x2="86" y2="425" stroke="black" stroke-width="6"/>
</svg>
